<?xml version="1.0" ?><svg enable-background="new 0 0 512 512" id="Layer_1" version="1.1" viewBox="0 0 512 512" xml:space="preserve" xmlns="http://www.w3.org/2000/svg" xmlns:xlink="http://www.w3.org/1999/xlink"><g><g><linearGradient gradientUnits="userSpaceOnUse" id="SVGID_1_" x1="0.0000038" x2="512" y1="256" y2="256"><stop offset="0" style="stop-color:#E24263"/><stop offset="1" style="stop-color:#DD1E47"/></linearGradient><circle cx="256" cy="256" fill="url(#SVGID_1_)" r="256"/><linearGradient gradientUnits="userSpaceOnUse" id="SVGID_2_" x1="42.6666679" x2="469.3333435" y1="256.0005188" y2="256.0005188"><stop offset="0" style="stop-color:#DD1E47"/><stop offset="1" style="stop-color:#E24263"/></linearGradient><path d="M256,469.3338623c-117.6314697,0-213.3333282-95.7018738-213.3333282-213.3333435    c0-117.6309204,95.7018585-213.333313,213.3333282-213.333313c117.6357422,0,213.3333435,95.7024002,213.3333435,213.333313    C469.3333435,373.6319885,373.6357422,469.3338623,256,469.3338623z" fill="url(#SVGID_2_)"/></g><path d="M383.9978638,215.8997345l-23.7359924-23.7365417l4.5263977-4.5263977   c6.7391968-6.7391968,6.7391968-17.6655884,0-24.4048004c-6.7397461-6.7397308-17.6656189-6.7397308-24.4053345,0   l-4.5263977,4.5263977l-23.7354736-23.7365265l-24.4447937,24.4453278l-21.4133301-21.4143982l-24.4442749,24.4442749   l45.1493225,45.1503906l-70.342392,70.3408203l0,0l-45.1493225-45.1482849l-24.4437408,24.4442749l21.4133301,21.4127808   l-24.4442596,24.4442749l23.7354584,23.7349548l-4.5263977,4.5274658c-6.7397308,6.7397156-6.7397308,17.6661072,0,24.4053345   c6.739212,6.7391968,17.6661377,6.7391968,24.4053345,0l4.5263977-4.5258789l23.6965332,23.6954651l24.4730682-24.4160156   l21.4245453,21.4256287l24.4058533-24.4053345l-45.1498566-45.1504211l0,0l70.3802643-70.3807983l45.1498718,45.1504211   l24.4442444-24.4442749l-21.4138489-21.4144135L383.9978638,215.8997345z" opacity="0.3"/><path d="M375.9978638,207.8997345l-23.7359924-23.7365417l4.5263977-4.5263977   c6.7391968-6.7391968,6.7391968-17.6656036,0-24.4048004c-6.7397461-6.7397308-17.6655884-6.7397308-24.4053345,0   l-4.5263977,4.5263977l-23.7354736-23.7365265l-24.4447937,24.4453278l-21.4133301-21.4143982l-24.4442749,24.4442749   l45.1493225,45.1503906l-70.342392,70.3408203l0,0l-45.1493225-45.1482849l-24.4437408,24.4442749l21.4133301,21.4127808   l-24.4442596,24.4442749l23.7354584,23.7349548l-4.5263977,4.5274658c-6.7397308,6.7397156-6.7397308,17.6661072,0,24.4053345   c6.739212,6.7391968,17.6661377,6.7391968,24.4053345,0l4.5263977-4.5258789l23.6965332,23.6954651l24.4730682-24.4160156   l21.42453,21.4256287l24.4058685-24.4053345l-45.1498566-45.1504211l0,0l70.3802643-70.3807983l45.1498718,45.1504211   l24.4442444-24.4442749l-21.4138489-21.4144135L375.9978638,207.8997345z" fill="#FFFFFF"/></g></svg>