<?xml version="1.0" standalone="no"?>
<!DOCTYPE svg PUBLIC "-//W3C//DTD SVG 20010904//EN"
 "http://www.w3.org/TR/2001/REC-SVG-20010904/DTD/svg10.dtd">
<svg version="1.0" xmlns="http://www.w3.org/2000/svg"
 width="225.000000pt" height="225.000000pt" viewBox="0 0 225.000000 225.000000"
 preserveAspectRatio="xMidYMid meet">
<metadata>
Created by potrace 1.11, written by Peter Selinger 2001-2013
</metadata>
<g transform="translate(0.000000,225.000000) scale(0.100000,-0.100000)"
fill="#000000" stroke="none">
<path d="M407 1694 c-4 -4 -7 -49 -7 -101 l0 -93 -108 0 c-71 0 -112 -4 -120
-12 -8 -8 -12 -46 -12 -105 l0 -93 -68 0 c-40 0 -73 -5 -80 -12 -13 -13 -18
-262 -6 -292 5 -13 22 -16 80 -16 l74 0 0 -98 c0 -63 4 -102 12 -110 8 -8 49
-12 120 -12 l107 0 3 -97 3 -98 150 0 150 0 3 208 2 207 410 0 410 0 2 -207 3
-208 150 0 150 0 3 98 3 97 109 0 c140 0 140 0 140 126 l0 94 74 0 c58 0 75 3
80 16 12 30 7 279 -6 292 -7 7 -40 12 -79 12 l-67 0 -4 95 c-2 71 -7 98 -18
105 -8 5 -63 10 -122 10 l-107 0 -3 98 -3 97 -150 0 -150 0 -3 -202 -2 -203
-410 0 -410 0 -2 203 -3 202 -146 3 c-80 1 -148 -1 -152 -4z m233 -569 l0
-505 -85 0 -85 0 0 505 0 505 85 0 85 0 0 -505z m1130 0 l0 -505 -85 0 -85 0
0 505 0 505 85 0 85 0 0 -505z m-1370 0 l0 -305 -85 0 -85 0 0 305 0 305 85 0
85 0 0 -305z m1610 0 l0 -306 -82 3 -83 3 -3 290 c-1 159 0 295 3 302 3 9 29
13 85 13 l80 0 0 -305z m-1850 5 l0 -90 -45 0 -45 0 0 90 0 90 45 0 45 0 0
-90z m1370 0 l0 -90 -410 0 -410 0 0 90 0 90 410 0 410 0 0 -90z m650 0 l0
-90 -47 0 -48 0 2 87 c1 49 2 89 3 91 0 1 20 2 45 2 l45 0 0 -90z"/>
</g>
</svg>
